HIERARCHY
ROOT Hips
{
    OFFSET 0.000000 0.000000 0.000000
    CHANNELS 6 Xposition Yposition Zposition Zrotation Xrotation Yrotation
        JOINT Chest
        {
            OFFSET -0.000000 31.935503 -0.000000
            CHANNELS 3 Zrotation Xrotation Yrotation
            JOINT Neck
            {
                OFFSET -0.000000 23.713140 0.000000
                CHANNELS 3 Zrotation Xrotation Yrotation
                JOINT Head
                {
                    OFFSET -0.000000 10.938888 0.000000
                    CHANNELS 3 Zrotation Xrotation Yrotation
                    End Site
                    {
                        OFFSET -0.000000 16.905556 0.000000
                    }
                }
            }
            JOINT LeftCollar
            {
                OFFSET -0.000000 23.713140 0.000000
                CHANNELS 3 Zrotation Xrotation Yrotation
                JOINT LeftShoulder
                {
                    OFFSET 19.888887 -0.000000 0.000000
                    CHANNELS 3 Zrotation Xrotation Yrotation
                    JOINT LeftElbow
                    {
                        OFFSET 23.906332 0.000000 0.000000
                        CHANNELS 3 Zrotation Xrotation Yrotation
                        JOINT LeftWrist
                        {
                            OFFSET 25.116924 0.000000 0.000000
                            CHANNELS 3 Zrotation Xrotation Yrotation
                            End Site
                            {
                                OFFSET 0.000000 -14.916667 0.000000
                            }
                        }
                    }
                }
            }
            JOINT RightCollar
            {
                OFFSET -0.000000 23.713140 0.000000
                CHANNELS 3 Zrotation Xrotation Yrotation
                JOINT RightShoulder
                {
                    OFFSET -19.888887 0.000000 0.000000
                    CHANNELS 3 Zrotation Xrotation Yrotation
                    JOINT RightElbow
                    {
                        OFFSET -23.906332 0.000000 0.000000
                        CHANNELS 3 Zrotation Xrotation Yrotation
                        JOINT RightWrist
                        {
                            OFFSET -25.116924 0.000000 0.000000
                            CHANNELS 3 Zrotation Xrotation Yrotation
                            End Site
                            {
                                OFFSET -0.000000 -14.916667 0.000000
                            }
                        }
                    }
                }
            }
        }
    JOINT LeftHip
    {
        OFFSET 11.933332 0.000000 0.000000
        CHANNELS 3 Zrotation Xrotation Yrotation
        JOINT LeftKnee
        {
            OFFSET -0.000000 -35.996647 0.000000
            CHANNELS 3 Zrotation Xrotation Yrotation
            JOINT LeftAnkle
            {
                OFFSET -0.000000 -39.788193 0.000000
                CHANNELS 3 Zrotation Xrotation Yrotation
                End Site
                {
                    OFFSET -0.000000 -4.972222 16.905556
                }
            }
        }
    }
    JOINT RightHip
    {
        OFFSET -11.933332 0.000000 0.000000
        CHANNELS 3 Zrotation Xrotation Yrotation
        JOINT RightKnee
        {
            OFFSET -0.000000 -35.996647 0.000000
            CHANNELS 3 Zrotation Xrotation Yrotation
            JOINT RightAnkle
            {
                OFFSET -0.000000 -39.788193 0.000000
                CHANNELS 3 Zrotation Xrotation Yrotation
                End Site
                {
                    OFFSET -0.000000 -4.972222 16.905556
                }
            }
        }
    }
}
MOTION
Frames:    8
Frame Time:    0.010000
-106.988586    86.772446    42.706226    -13.074315    3.331466    32.661011    5.562008    12.049201    -22.697977    5.753640    -3.606697    20.757732    -10.521585    -7.344391    19.896868    -6.956537    1.188986    -17.596207    -3.164366    27.377703    -97.300316    12.162968    -3.259995    -31.917007    110.027382    14.577305    43.885418    16.899183    -0.645209    -5.190766    31.874104    42.316048    36.786121    -37.456070    -20.712969    55.084293    -141.213669    29.725824    -30.509306    16.181757    8.585183    3.406752    -1.909825    26.455425    3.316308    14.184005    9.919918    12.611908    7.157011    -36.545979    8.712387    5.198092    29.036991    -10.467105    -4.610169    1.764349    15.445463    
-106.976151    86.743584    42.710590    -12.856944    3.059841    33.359459    5.501209    12.189983    -22.719810    5.861471    -3.439651    20.549240    -10.636189    -7.527805    19.668715    -7.597936    1.269755    -17.322681    -4.862545    29.355913    -94.234245    11.535123    -3.144450    -32.538864    109.611969    15.105396    45.284267    16.841139    -0.772835    -6.058805    30.180094    45.661629    39.774258    -37.866158    -19.933697    52.513809    -139.594543    29.278055    -30.500769    16.345671    8.600533    3.518493    -1.861742    26.461208    3.514914    15.433991    10.126946    11.609218    6.708827    -36.393307    8.364386    5.339368    29.394714    -10.793311    -4.514069    1.569956    15.188996    
-106.974243    86.710495    42.703369    -12.639934    2.794033    34.061798    5.432902    12.366765    -22.685535    6.027432    -3.291996    20.317390    -10.771413    -7.733415    19.410595    -8.223220    1.344017    -17.026791    -6.610548    31.126976    -91.148552    10.892356    -3.006811    -32.976372    109.193451    15.534864    46.694328    16.758869    -0.892534    -6.873686    27.991079    48.761112    43.303371    -38.170620    -19.025949    49.867668    -137.895630    28.888493    -30.691324    16.518993    8.597410    3.629422    -1.830538    26.482931    3.655580    16.400179    10.229970    10.822363    6.265880    -36.255211    8.020905    5.486380    29.760990    -11.155008    -4.393140    1.402768    14.955004    
-106.982491    86.673599    42.685005    -12.424732    2.534514    34.764736    5.358902    12.577156    -22.575243    6.233909    -3.172785    20.048174    -10.908104    -7.959745    19.110184    -8.819725    1.406023    -16.697615    -8.347452    32.704144    -88.133171    10.281222    -2.864457    -33.208820    108.761650    15.873514    48.145527    16.664658    -1.000211    -7.608876    25.328718    51.530457    47.296741    -38.312492    -18.008867    47.234234    -136.145340    28.523878    -31.048977    16.700890    8.574804    3.741332    -1.811050    26.527107    3.693993    17.055189    10.247412    10.298534    5.829454    -36.134117    7.679473    5.637749    30.136356    -11.555018    -4.265112    1.257115    14.760255    
-107.000443    86.633240    42.656464    -12.212549    2.282230    35.465912    5.279561    12.816327    -22.371613    6.460393    -3.090345    19.729008    -11.024220    -8.201395    18.756857    -9.374601    1.450174    -16.331116    -10.021949    34.115295    -85.258698    9.733006    -2.727645    -33.240051    108.317932    16.154797    49.664513    16.565704    -1.097642    -8.241404    22.271957    53.930260    51.624619    -38.278446    -16.929638    44.680515    -134.336884    28.117044    -31.544485    16.889507    8.532253    3.854956    -1.797179    26.597328    3.604890    17.401550    10.198081    10.054421    5.401024    -36.030357    7.338008    5.789892    30.518370    -11.987574    -4.144008    1.126779    14.610742    
-107.027969    86.589783    42.619251    -12.004930    2.038292    36.164223    5.195069    13.076729    -22.061638    6.684508    -3.048114    19.348015    -11.099912    -8.453611    18.340918    -9.875168    1.484018    -15.933591    -11.597326    35.384670    -82.570900    9.248752    -2.602043    -33.090710    107.882050    16.421808    51.262455    16.466061    -1.182761    -8.759217    18.927874    55.957890    56.137577    -38.075863    -15.830532    42.258766    -132.465317    27.609873    -32.148251    17.083609    8.469343    3.969846    -1.782656    26.694288    3.383655    17.468611    10.095958    10.073560    4.983971    -35.942570    6.997695    5.936871    30.901960    -12.443225    -4.036132    1.006102    14.503483    
-107.065239    86.543739    42.575344    -11.803674    1.803893    36.860168    5.105246    13.349979    -21.638412    6.885528    -3.046360    18.896666    -11.119646    -8.710099    17.856318    -10.315137    1.505101    -15.517724    -13.044983    36.549606    -80.092598    8.867391    -2.502384    -32.793404    107.436462    16.711405    52.944233    16.367073    -1.252126    -9.157806    15.420346    57.635162    60.685040    -37.725674    -14.752100    40.010185    -130.557373    26.976439    -32.814892    17.282938    8.385528    4.083573    -1.762022    26.815784    3.047418    17.306498    9.947765    10.307506    4.581602    -35.868004    6.662543    6.074378    31.279802    -12.910401    -3.940657    0.891138    14.425566    
-107.112625    86.495956    42.526554    -11.612022    1.581522    37.557114    5.010571    13.627230    -21.103001    7.046351    -3.084264    18.370266    -11.074410    -8.963620    17.300596    -10.691924    1.512007    -15.100629    -14.360260    37.642128    -77.820778    8.600715    -2.431683    -32.383656    106.977547    17.053450    54.707859    16.269121    -1.299479    -9.443495    11.852669    58.996529    65.152534    -37.256260    -13.725197    37.961624    -128.670898    26.240366    -33.487057    17.488064    8.276978    4.190044    -1.730816    26.958233    2.628471    16.981852    9.756081    10.684125    4.196048    -35.805408    6.337168    6.200199    31.644173    -13.379522    -3.853321    0.779287    14.359190    
